<svg width="90" height="54" viewBox="0 0 90 54" fill="none" xmlns="http://www.w3.org/2000/svg">
<path d="M10.9472 11.8599H6.79112L5.1733 20.9251C4.98736 22.0594 5.17332 22.7568 5.73117 23.0171C6.30763 23.2588 7.37687 23.3146 8.93887 23.1844L8.74362 24.4396C6.82831 24.7371 5.45225 24.6069 4.61545 24.0491C3.77866 23.4727 3.49972 22.4314 3.77866 20.9251L5.36857 11.8599H2.30032L2.55137 10.4931H5.61959L6.23325 7.00646L7.71158 6.58806L7.01425 10.4931H11.1982L10.9472 11.8599ZM15.5482 7.11804C15.2321 7.11804 14.9904 7.01575 14.823 6.81121C14.6557 6.58806 14.5999 6.31845 14.6557 6.00231C14.6928 5.70479 14.8323 5.45375 15.0741 5.24921C15.3158 5.02605 15.604 4.91447 15.9387 4.91447C16.2363 4.91447 16.478 5.02605 16.664 5.24921C16.8499 5.45375 16.915 5.70479 16.8592 6.00231C16.8034 6.31845 16.6547 6.58806 16.4129 6.81121C16.1712 7.01575 15.883 7.11804 15.5482 7.11804ZM13.2052 24.4396H11.8106L14.2651 10.4931H15.6598L13.2052 24.4396ZM34.6299 10.1863C36.0618 10.1863 37.1776 10.6697 37.9772 11.6367C38.7953 12.6037 39.0557 13.924 38.7582 15.5975L37.196 24.4396H35.8014L37.3357 15.5975C37.5588 14.3145 37.4007 13.3196 36.8614 12.613C36.3222 11.8878 35.4853 11.5251 34.351 11.5251C33.1424 11.5251 32.0916 11.9157 31.1991 12.6967C30.3251 13.4777 29.7208 14.6213 29.386 16.1275L27.9078 24.4396H26.5131L28.0472 15.5975C28.2889 14.3145 28.1495 13.3196 27.6287 12.613C27.1268 11.8878 26.3177 11.5251 25.2022 11.5251C23.919 11.5251 22.8033 11.9714 21.8549 12.864C20.9065 13.738 20.2929 14.9839 20.014 16.6017L18.6193 24.4396H17.2246L19.6793 10.4931H21.0739L20.6834 12.6409C21.9293 11.0045 23.5471 10.1863 25.5368 10.1863C26.541 10.1863 27.387 10.4373 28.075 10.9394C28.7631 11.4229 29.2187 12.1202 29.4418 13.0314C30.7622 11.1346 32.4914 10.1863 34.6299 10.1863ZM44.0697 12.1946C45.5945 10.8557 47.3981 10.1863 49.4808 10.1863C51.5635 10.1863 53.1349 10.9115 54.1947 12.3619C55.2734 13.8124 55.6174 15.5325 55.2268 17.5222C55.1711 17.8197 55.1153 18.0428 55.0595 18.1916H42.4797C42.3681 19.7722 42.7585 21.0367 43.6512 21.9851C44.5624 22.9334 45.8176 23.4076 47.4168 23.4076C49.7226 23.4076 51.4891 22.5522 52.7164 20.8414L53.8043 21.5667C53.1349 22.5522 52.2051 23.3332 51.0149 23.9097C49.8436 24.4675 48.5789 24.7464 47.2214 24.7464C45.1016 24.7464 43.4745 24.0398 42.3402 22.6266C41.2058 21.2319 40.8246 19.4468 41.1966 17.2711C41.5498 15.207 42.5075 13.5149 44.0697 12.1946ZM42.7027 16.8248H53.888C54.0553 15.1698 53.7207 13.8775 52.8837 12.9477C52.0657 11.9993 50.8941 11.5251 49.3693 11.5251C47.7514 11.5251 46.3476 12.0086 45.1574 12.9756C43.93 13.9797 43.112 15.2628 42.7027 16.8248ZM73.5105 11.8599H69.3546L67.7366 20.9251C67.5507 22.0594 67.7366 22.7568 68.2945 23.0171C68.8711 23.2588 69.9403 23.3146 71.5022 23.1844L71.3071 24.4396C69.3916 24.7371 68.0155 24.6069 67.1787 24.0491C66.342 23.4727 66.063 22.4314 66.342 20.9251L67.9318 11.8599H64.8638L65.1147 10.4931H68.183L68.7967 7.00646L70.2749 6.58806L69.5776 10.4931H73.7615L73.5105 11.8599ZM79.9727 24.7464C78.0202 24.7464 76.4117 24.0584 75.1473 22.6824C73.9013 21.3249 73.4644 19.5398 73.8364 17.3269C74.2267 15.1512 75.2589 13.4219 76.9325 12.1388C78.5873 10.8371 80.4283 10.1863 82.4552 10.1863C84.4264 10.1863 86.007 10.8836 87.1972 12.2783C88.4058 13.6543 88.8241 15.4209 88.4524 17.5779C88.0618 19.8094 87.0483 21.5574 85.412 22.8219C83.757 24.1049 81.9439 24.7464 79.9727 24.7464ZM80.1124 23.4076C81.7487 23.4076 83.227 22.8683 84.5471 21.7898C85.9047 20.7113 86.7416 19.2515 87.0575 17.4106C87.3553 15.6626 87.0204 14.2401 86.0535 13.143C85.0866 12.0644 83.8035 11.5251 82.2043 11.5251C80.5679 11.5623 79.0802 12.1109 77.7414 13.1708C76.3839 14.268 75.5564 15.6998 75.2589 17.4664C74.9427 19.2701 75.2681 20.7113 76.235 21.7898C77.2022 22.8683 78.4944 23.4076 80.1124 23.4076Z" fill="#FBFBFB"/>
<path d="M2.34 26.728H11.7359C14.1359 26.728 16.1759 27.5438 17.8559 29.1758C19.5119 30.808 20.3398 32.8119 20.3398 35.1878C20.3398 37.5639 19.5119 39.5678 17.8559 41.1997C16.1759 42.8317 14.1359 43.6478 11.7359 43.6478H7.30796V51.9277H2.34V26.728ZM7.30796 39.0038H11.7359C12.7919 39.0038 13.6679 38.6438 14.3639 37.9239C15.0599 37.1798 15.4079 36.2679 15.4079 35.1878C15.4079 34.0839 15.0599 33.172 14.3639 32.4519C13.6679 31.7318 12.7919 31.372 11.7359 31.372H7.30796V39.0038ZM39.882 51.9277H34.5181L29.442 43.1799H25.6621V51.9277H20.6942V26.728H30.7741C33.1022 26.728 35.0821 27.5438 36.7141 29.1758C38.346 30.808 39.1621 32.7758 39.1621 35.0799C39.1621 36.6399 38.7182 38.0919 37.8301 39.4359C36.9422 40.7558 35.766 41.7518 34.3021 42.4239L39.882 51.9277ZM30.7741 31.372H25.6621V38.8239H30.7741C31.7102 38.8239 32.5142 38.4639 33.1861 37.7438C33.8582 36.9999 34.1942 36.1118 34.1942 35.0799C34.1942 34.048 33.8582 33.172 33.1861 32.4519C32.5142 31.7318 31.7102 31.372 30.7741 31.372ZM39.9273 51.9277V26.728H44.8953V51.9277H39.9273ZM66.2278 26.728H71.3398V51.9277H66.408V35.584L59.3161 47.2837H58.74L51.6482 35.6198V51.9277H46.68V26.728H51.792L59.0281 38.6438L66.2278 26.728ZM78.1233 41.5239V47.1758H88.7431V51.9277H73.1553V26.728H88.5632V31.4799H78.1233V36.8438H87.6632V41.5239H78.1233Z" fill="#FEA6C3"/>
<path d="M15.9943 2.31295L16.6809 5.29113L19.7255 5.55844L17.1052 7.13174L17.7918 10.1099L15.4858 8.10409L12.8656 9.67739L14.0606 6.86443L11.7546 4.85861L14.7992 5.12592L15.9943 2.31295Z" fill="#FEA6C3"/>
</svg>
